<?xml version="1.0" encoding="UTF-8"?>
<svg width="164px" height="43px" viewBox="0 0 164 43" version="1.1" xmlns="http://www.w3.org/2000/svg" xmlns:xlink="http://www.w3.org/1999/xlink">
    <title>画板</title>
    <g id="画板" stroke="none" stroke-width="1" fill="none" fill-rule="evenodd">
        <path d="M26.04,17.2 L27.92,15.4 L28.28,7.92 L24.52,7.72 L24.24,13.44 L23.04,13.44 L23.84,5.32 L20.08,4.96 L19.24,13.44 L18.44,13.44 L18.08,8.64 L14.32,8.96 L14.8,15.44 L16.68,17.2 L26.04,17.2 Z M31.68,38.24 L34.16,30.96 L35.92,33.52 L39.04,31.36 L35.68,26.52 L39.52,15.36 L38.04,12.92 L33.28,12.2 L35.08,8.36 L31.68,6.76 L28.8,12.84 L30.24,15.56 L35.24,16.32 L33.04,22.64 L32.24,21.44 L29.12,23.6 L31.52,27.12 L29.36,33.32 L27.8,30.32 L26.28,31.04 L26.72,27.2 L25.04,25.12 L18.4,24.4 L16.32,26 L14.68,37.32 L18.4,37.84 L19.8,28.36 L22.8,28.64 L22.12,34.16 L24.88,36.04 L29.16,33.84 L28.08,37 L31.68,38.24 Z M6.2,15.8 L14.24,11.76 L12.52,8.4 L4.48,12.44 L6.2,15.8 Z M9.84,37.36 L13.6,37.16 L12.88,22.08 L15.64,20.52 L13.72,17.2 L5.6,21.84 L7.44,25.12 L9.2,24.12 L9.84,37.36 Z M26.6,23.04 L26.6,19.32 L16.44,19.32 L16.44,23.04 L26.6,23.04 Z M48.68,37.68 L51.88,29.96 L52,29.16 L51.36,11.32 L73,10.24 L70.6,33.84 L71.96,35.84 L77.8,37.48 L78.8,33.88 L74.52,32.64 L77,8.44 L75.08,6.36 L51.24,7.52 L51.16,5.48 L47.4,5.6 L48.2,28.84 L45.16,36.24 L48.68,37.68 Z M56.96,35.68 L62.08,27.04 L66.08,33.2 L69.2,31.16 L64.2,23.44 L69.72,14.16 L66.48,12.24 L61.92,19.92 L58.16,14.04 L54.96,16.08 L59.8,23.52 L53.72,33.8 L56.96,35.68 Z M88.48,37.88 L100.76,29.12 L116.04,36.84 L117.72,33.44 L104.24,26.64 L114.4,19.4 L115.2,17.88 L115.24,12.4 L113.48,10.48 L96.48,9.44 L97.68,6.96 L94.28,5.28 L88,18.28 L91.4,19.96 L94.72,13.12 L111.44,14.16 L111.44,16.88 L86.28,34.88 L88.48,37.88 Z M156.36,38.48 L158.48,36.96 L159.36,32.44 L155.64,31.76 L155.08,34.44 L142.36,32.28 L143,17.88 L146.84,16.6 L147.04,24.76 L150.84,24.64 L150.6,15.32 L154.28,14.08 L154.8,26.16 L150.44,27.88 L151.84,31.44 L157.44,29.2 L158.64,27.36 L157.96,11.4 L155.44,9.68 L150.52,11.36 L150.36,4.68 L146.56,4.76 L146.72,12.6 L143.2,13.8 L143.56,6.16 L139.76,6 L139.32,15.12 L135.24,16.48 L136.44,20.08 L139.16,19.16 L138.48,33.8 L140.08,35.76 L156.36,38.48 Z M127.2,37.88 L138.08,31.16 L136.04,27.88 L132.56,30.08 L132.56,15.64 L136.6,15.08 L136.16,11.36 L132.56,11.8 L132.56,5.76 L128.76,5.76 L128.76,12.28 L124.64,12.8 L125.16,16.6 L128.76,16.12 L128.76,32.52 L125.2,34.76 L127.2,37.88 Z" id="微风久地" fill="#FFD30C" fill-rule="nonzero"></path>
    </g>
</svg>