<?xml version="1.0" encoding="UTF-8"?>
<svg width="120px" height="30px" viewBox="0 0 120 30" version="1.1" xmlns="http://www.w3.org/2000/svg" xmlns:xlink="http://www.w3.org/1999/xlink">
    <title>画板</title>
    <defs>
        <polygon id="path-1" points="0.380064935 0.254810127 30.3132633 0.254810127 30.3132633 29.6901817 0.380064935 29.6901817"></polygon>
    </defs>
    <g id="画板" stroke="none" stroke-width="1" fill="none" fill-rule="evenodd">
        <g id="编组-4">
            <g id="编组-3">
                <g id="编组">
                    <g transform="translate(0.387879, 0.000000)">
                        <mask id="mask-2" fill="white">
                            <use xlink:href="#path-1"></use>
                        </mask>
                        <g id="Clip-2"></g>
                        <path d="M24.6477964,29.6669241 L1.93322667,26.0859114 C0.926681212,25.9271772 0.241687273,24.9994557 0.403820606,24.0136329 L4.06151758,1.77565823 C4.22365091,0.789835443 5.17123879,0.119202532 6.17817212,0.277936709 L27.9975176,3.71768354 C29.4986085,3.95464557 30.5195055,5.33806329 30.277857,6.80768354 L26.7644509,28.1695823 C26.6023176,29.1550253 25.6547297,29.8256582 24.6477964,29.6669241" id="Fill-1" fill="#4F4F4F" mask="url(#mask-2)"></path>
                    </g>
                    <path d="M25.1773285,29.7502025 L2.01553455,27.0646329 C1.10867394,26.9453924 0.472164848,26.1293165 0.593958788,25.2414684 L3.33703758,2.56526582 C3.45844364,1.67779747 4.29199515,1.05463291 5.19885576,1.17349367 L27.6896194,3.75349367 C28.9669042,3.93083544 29.8555345,5.08868354 29.6743952,6.33918987 L27.0391467,28.3584304 C26.9173527,29.2458987 26.0838012,29.8690633 25.1773285,29.7502025" id="Fill-3" fill="#848484"></path>
                    <path d="M25.3189818,29.833443 L1.70957576,28.0429367 C0.902787879,27.9635696 0.314763636,27.2591392 0.395830303,26.4696456 L2.22467879,3.35483544 C2.30574545,2.56534177 3.02526061,1.98964557 3.83204848,2.06901266 L26.9938424,3.78888608 C28.0473212,3.90736709 28.8036848,4.83926582 28.6826667,5.87103797 L26.9263515,28.5472405 C26.8452848,29.3371139 26.1253818,29.9128101 25.3189818,29.833443" id="Fill-5" fill="#ADADAD"></path>
                    <path d="M25.4606739,29.9167215 L1.40365576,29.0216582 C0.697328485,28.9817848 0.157401212,28.389 0.198128485,27.697481 L1.11235879,4.14482278 C1.15308606,3.45292405 1.75856485,2.9246962 2.46489212,2.96418987 L26.2981042,3.82431646 C27.1281648,3.88355696 27.7518739,4.59026582 27.6913648,5.40292405 L26.8132073,28.7364684 C26.77248,29.4279873 26.1670012,29.9562152 25.4606739,29.9167215" id="Fill-7" fill="#E1E1E1"></path>
                    <path d="M25.6023273,30.1402532 L1.09769697,30.1402532 C0.491442424,30.1402532 0,29.6591139 0,29.0655696 L0,5.07468354 C0,4.48113924 0.491442424,4 1.09769697,4 L25.6023273,4 C26.2085818,4 26.7000242,4.48113924 26.7000242,5.07468354 L26.7000242,29.0655696 C26.7000242,29.6591139 26.2085818,30.1402532 25.6023273,30.1402532" id="Fill-9" fill="#F6F7F7"></path>
                </g>
                <g id="编组-2" transform="translate(4.000000, 9.000000)" fill="#D94C81">
                    <polygon id="Fill-11" points="1.14316667 16.6621804 17.7713333 16.6621804 9.45725 8.89983261"></polygon>
                    <polygon id="Fill-12" points="4.41710417 0.000147826087 -7.73455374e-14 6.35297391 8.11735417 6.35297391"></polygon>
                    <polygon id="Fill-13" points="10.7995208 6.35097826 18.9141042 6.35097826 14.8568125 1.3129594e-15"></polygon>
                    <path d="M1.47792292,9.40783696 C1.47792292,10.5797283 2.49561042,11.5298804 3.75079792,11.5298804 C5.00598542,11.5298804 6.02327708,10.5797283 6.02327708,9.40783696 C6.02327708,8.23594565 5.00598542,7.28579348 3.75079792,7.28579348 C2.49561042,7.28579348 1.47792292,8.23594565 1.47792292,9.40783696" id="Fill-14"></path>
                    <path d="M17.1290146,9.40063043 C17.1290146,8.22467391 16.1117229,7.27119565 14.8569312,7.27119565 C13.6021396,7.27119565 12.5848479,8.22467391 12.5848479,9.40063043 C12.5848479,10.576587 13.6021396,11.5296957 14.8569312,11.5296957 C16.1117229,11.5296957 17.1290146,10.576587 17.1290146,9.40063043" id="Fill-16"></path>
                </g>
            </g>
            <path d="M45.723,24.848 L55.194,24.281 L55.194,15.104 L52.443,15.104 L52.443,12.038 L55.677,12.038 L55.677,9.623 L52.443,9.623 L52.443,6.389 L48.432,6.389 L48.432,15.104 L45.723,15.104 L45.723,24.848 Z M45.534,12.206 L45.534,9.644 L43.308,9.644 L42.783,6.599 L39.318,6.977 L39.759,9.644 L37.281,9.644 L37.281,12.206 L45.534,12.206 Z M43.581,20.648 L44.484,12.815 L42.027,12.5 L41.103,20.291 L43.581,20.648 Z M38.373,20.606 L41.019,20.333 L40.347,12.521 L37.722,12.752 L38.373,20.606 Z M49.482,22.097 L49.482,17.288 L52.317,17.288 L52.317,21.908 L49.482,22.097 Z M37.239,24.239 L45.576,23.168 L45.282,20.438 L36.987,21.53 L37.239,24.239 Z M64.644,25.058 L64.644,17.75 L64.959,19.031 L67.164,18.296 L66.03,13.634 L64.644,14.096 L64.644,12.458 L66.324,12.458 L66.324,9.938 L64.644,9.938 L64.644,6.2 L60.948,6.2 L60.948,9.938 L58.197,9.938 L58.197,12.458 L60.129,12.458 L57.693,21.614 L60.045,22.349 L60.948,18.737 L60.948,25.058 L64.644,25.058 Z M75.648,24.89 L75.648,12.479 L76.95,12.479 L76.95,9.854 L75.648,9.854 L75.648,6.431 L71.637,6.431 L71.637,9.854 L66.996,9.854 L66.996,12.479 L71.637,12.479 L71.637,21.971 L69.348,21.845 L69.348,24.554 L75.648,24.89 Z M68.718,20.207 L71.259,19.241 L69.411,14.285 L66.996,15.104 L68.718,20.207 Z M94.884,24.932 L94.884,19.808 L97.593,19.724 L97.488,17.204 L94.884,17.288 L94.884,16.217 L97.005,16.217 L97.005,13.907 L85.434,13.907 L85.434,12.752 L96.207,12.752 L96.207,7.166 L80.394,7.166 L80.394,16.217 L90.768,16.217 L90.768,17.414 L79.386,17.75 L79.491,20.27 L82.662,20.186 L81.843,21.551 L86.673,23.945 L88.08,21.488 L85.266,20.102 L90.768,19.934 L90.768,22.076 L88.857,21.95 L88.857,24.554 L94.884,24.932 Z M92.007,10.652 L85.434,10.652 L85.434,9.476 L92.007,9.476 L92.007,10.652 Z M108.828,24.701 L108.828,22.433 L108.807,22.433 L108.681,8.111 L106.77,8.174 L107.19,6.956 L103.977,5.969 L103.284,8.258 L101.163,8.3 L100.995,14.978 L100.092,14.978 L100.113,17.477 L100.953,17.456 L100.785,24.47 L103.662,24.68 L103.83,18.674 L104.754,21.11 L106.35,20.228 L106.371,22.307 L105.132,22.223 L105.216,24.491 L108.828,24.701 Z M109.416,11.66 L118.509,11.45 L118.446,8.888 L116.178,8.951 L115.002,5.99 L111.096,7.103 L111.894,9.035 L109.353,9.098 L109.416,11.66 Z M106.329,14.978 L103.914,14.978 L103.977,13.067 L104.523,14.495 L106.077,13.823 L104.985,10.946 L104.019,11.366 L104.04,10.61 L106.329,10.61 L106.329,14.978 Z M112.839,24.848 L113.637,15.293 L114.666,15.293 L114.666,24.575 L118.971,24.575 L118.971,21.929 L117.249,21.929 L117.249,13.151 L110.025,13.151 L109.08,24.533 L112.839,24.848 Z M106.35,19.493 L105.216,17.351 L103.83,18.275 L103.851,17.351 L106.35,17.246 L106.35,19.493 Z" id="站村导航" fill="#333" fill-rule="nonzero"></path>
        </g>
    </g>
</svg>