<?xml version="1.0" encoding="UTF-8"?>
<svg width="408px" height="459px" viewBox="0 0 408 459" version="1.1" xmlns="http://www.w3.org/2000/svg" xmlns:xlink="http://www.w3.org/1999/xlink">
    <title>编组 7</title>
    <g id="站村存站" stroke="none" stroke-width="1" fill="none" fill-rule="evenodd">
        <g id="站村-添加村子" transform="translate(-920.000000, -220.000000)">
            <g id="编组-7" transform="translate(922.000000, 221.000000)">
                <polygon id="路径-2" stroke="#000000" fill="#FFFFFF" points="22.5248136 15.955873 0 43.1824912 96.9948619 4.10078185"></polygon>
                <polygon id="路径-3" stroke="#000000" fill="#FFFFFF" points="39.7087317 -8.8817842e-15 29.5662347 14.10777 97.0330098 3.10078185"></polygon>
                <polygon id="路径-4" fill="#000000" points="48.4974309 45.9970051 32.1656931 30.5074337 97.0330098 4.10078185"></polygon>
                <path d="M144.138956,130.614027 L98.3736972,157.940487 C100.873369,165.892206 103.335626,171.116648 105.760468,173.613811 C108.185309,176.110975 112.9714,178.351065 120.11874,180.334082 C121.439915,184.793811 122.833809,187.817527 124.300422,189.405231 C125.767035,190.992934 128.534397,192.474048 132.602509,193.848571 L150.227147,170.686423 L144.138956,130.614027 Z" id="路径-29" fill="#000000"></path>
                <path d="M116.375926,91.7508376 L109.905735,86.7226304 C106.119191,86.0060949 103.476702,86.0060949 101.978268,86.7226304 C100.479834,87.439166 98.6694663,89.5684761 96.5471646,93.1105608 L101.978268,118.383321 L129.988761,102.552976 L116.375926,91.7508376 Z" id="路径-9" fill="#000000"></path>
                <path d="M56.3599674,39.9335602 L54.2627982,29.1247961 C50.8609242,31.2925755 48.9391352,35.2711153 48.4974309,41.0604153 C48.0557267,46.8497153 49.0020596,58.2944753 51.3364297,75.3946954 C57.737367,107.635828 66.4703186,130.425427 77.5352844,143.763492 C88.6002502,157.101557 100.807767,162.150245 114.157834,158.909556 C142.037525,141.943605 160.644781,125.598934 169.979604,109.875544 L126.058823,93.8846471 L107.345573,111.852168 L77.5352844,55.4531331 L75.0967279,23.6416365 L56.3599674,35.6015837 L56.3599674,39.9335602 Z" id="路径-5" stroke="#000000" fill="#FFFFFF"></path>
                <path d="M174.611872,48.6617236 C173.056429,52.5516274 171.447361,55.3466792 169.784668,57.0468787 C168.458712,58.402746 166.292026,59.7536221 163.284611,61.0995072 L163.284611,61.099507 C161.782704,61.771644 160.166849,62.1525426 158.522868,62.2219724 C150.652551,62.5543574 144.746301,62.782806 140.804116,62.9073184 C137.78445,63.0026934 134.291469,63.2820206 130.325175,63.7453001 C126.372188,64.2070252 122.596072,65.644546 119.336767,67.9284521 C116.528837,69.8960643 114.511029,71.7626253 113.283345,73.5281352 C111.351928,76.3056682 110.226058,81.1274028 109.905735,87.9933389 L123.835396,98.3945469 L190.548559,81.5397634 L189.544264,55.728866 L174.611872,48.6617236 Z" id="路径-8" fill="#000000"></path>
                <g id="编组-6" transform="translate(139.853543, 8.200953)">
                    <path d="M36.2968474,43.0762472 C30.0260852,43.8126369 25.0327114,44.2613814 21.3167259,44.4224808 C17.6007405,44.5835801 12.2417557,44.5835801 5.23977153,44.4224808 C2.75425024,43.6601295 1.36611387,42.8140466 1.07536242,41.884232 C0.63923524,40.4895101 0.153172787,38.5528853 3.13081513,35.7171736 C6.10845748,32.881462 7.57007968,33.0777449 12.3548062,31.1424282 C15.544624,29.852217 21.4683756,27.9016492 30.1260612,25.2907247 C30.7147354,18.7484078 31.8070433,14.0097381 33.4029847,11.0747158 C34.9989262,8.13969345 37.9583893,5.42693795 42.2813741,2.93644927 C47.1824493,1.17279153 50.8067793,0.205124471 53.154364,0.033448083 C55.5019487,-0.138228305 58.4205941,0.350957895 61.9103001,1.50100668 C66.6664384,5.14086386 69.9765425,8.33210023 71.8406124,11.0747158 C73.7046822,13.8173313 75.7842867,18.556001 78.0794258,25.2907247 L36.2968474,43.0762472 Z" id="路径-13" fill="#D9C6F4"></path>
                    <path d="M26.7548245,26.3701544 C27.6930305,29.2567069 28.5481078,31.4305354 29.3200565,32.8916399 C30.0920052,34.3527444 31.4698227,36.4052235 33.453509,39.0490771 L36.2672666,35.2814417 C34.3342231,33.8061994 33.0062292,32.4805233 32.2832848,31.3044134 C31.5603405,30.1283036 30.841266,28.1237407 30.1260612,25.2907247 L26.7548245,26.3701544 Z" id="路径-14" fill="#000000"></path>
                    <path d="M78.7046351,24.5066203 C77.67906,22.760028 76.8468668,21.1873749 76.2080554,19.788661 C75.569244,18.3899471 74.3584449,16.9406213 72.5756581,15.4406837 C70.1697976,14.7051492 68.3414283,14.463742 67.09055,14.7164621 C65.8396717,14.9691823 64.4029931,15.8702406 62.780514,17.4196372 C61.7404325,18.9102203 61.0944975,20.290475 60.8427089,21.5604012 C60.5909204,22.8303274 60.5909204,24.5866887 60.8427089,26.8294852 C59.8087461,27.3896865 58.7040459,27.9178344 57.5286085,28.4139292 C56.3531712,28.910024 54.2645584,29.9275225 51.2627703,31.4664248 L57.0963924,35.734705 L78.7046351,24.5066203 Z" id="路径-15" fill="#000000"></path>
                </g>
                <path d="M139.451995,260.799797 L125.417887,255.85632 C121.470283,256.272452 118.799213,257.169875 117.404676,258.54859 C116.01014,259.927304 114.844649,262.822914 113.908203,267.235421 C114.063249,272.395146 114.485118,276.198117 115.17381,278.644335 C115.862502,281.090552 117.307262,283.917804 119.508091,287.126091 L135.563889,309.216068 L155.799836,293.102211 L139.451995,260.799797 Z" id="路径-18" fill="#000000"></path>
                <path d="M185.158667,56.1361258 C183.852777,55.3525004 182.939928,54.9062296 182.420121,54.7973135 C173.581631,52.9453669 172.136828,50.8926972 172.136828,46.4398837 C172.136828,41.5942537 176.477441,40.3488918 185.158667,42.703798 C187.216013,40.9296815 189.61988,40.0426232 192.37027,40.0426232 C195.12066,40.0426232 197.455741,40.0426232 199.375512,40.0426232 C205.653004,34.4796252 211.415724,31.6981263 216.663673,31.6981263 C218.492972,31.6981263 218.178874,34.6010679 218.915266,36.6963106 C220.291456,40.6119648 219.597626,50.7569593 218.915266,54.7973135 C218.232905,58.8376676 215.945189,62.62605 214.328753,63.8537152 C213.251129,64.6721586 210.414693,64.6721586 205.819445,63.8537152 L207.088792,95.8083538 L199.375512,95.8083538 C193.730999,96.4229041 188.992051,96.4229041 185.158667,95.8083538 C179.408591,94.8865283 177.493827,87.8349161 178.793886,82.6347988 C179.660593,79.1680539 181.782186,73.3169144 185.158667,65.0813803 L185.158667,56.1361258 Z" id="路径-6" stroke="#000000" fill="#FFFFFF"></path>
                <path d="M261.147038,72.6733503 C262.979843,70.0467392 264.514917,68.2764156 265.75226,67.3623796 C266.989603,66.4483437 268.629121,65.9943116 270.670813,66.0002834 C273.163361,66.5846984 274.839586,67.5031858 275.699487,68.7557455 C276.17057,69.4419394 276.917088,70.1502004 277.498612,71.6449499 C277.818595,72.4674337 278.138897,73.9251755 278.459519,76.0181753 L278.459519,91.8820276 L258,92.5187625 L261.147038,72.6733503 Z" id="路径-35" fill="#000000"></path>
                <path d="M253.889611,86.1852288 C264.730439,86.8671814 273.208759,87.3970521 279.324572,87.774841 C285.440385,88.1526299 295.71311,89.2131803 310.142748,90.9564921 C313.634818,91.7056818 320.482006,93.6558159 330.684311,96.8068944 C335.696916,98.3550849 343.128988,104.071828 354.200938,107.571013 C359.163475,109.139376 365.967328,113.26192 377.062773,115.832953 C381.056797,116.758446 387.928964,117.716475 397.679274,118.707038 L398.016864,118.870797 C398.513772,119.111838 398.721194,119.710063 398.480153,120.206972 C398.312951,120.55166 397.963522,120.770529 397.580421,120.770529 L383.600312,120.770529 L383.600312,120.770529 L403.286343,122.099433 C404.336238,122.170306 405.151639,123.042607 405.151639,124.094892 L405.151639,124.254564 C405.151639,125.299068 404.304902,126.145806 403.260398,126.145806 C403.216039,126.145806 403.171694,126.144245 403.127445,126.141127 L380.833896,124.570025 L380.833896,124.570025 L401.707727,127.081687 C402.166337,127.13687 402.49338,127.553381 402.438197,128.011992 C402.412914,128.222118 402.308909,128.414846 402.14715,128.551324 C401.189227,129.359532 400.011955,129.863562 398.765964,129.998925 L382.609972,131.754092 L382.609972,131.754092 L383.197928,133.713015 C383.356736,134.241996 383.056614,134.79954 382.527622,134.958313 C382.421915,134.99004 382.311685,135.00405 382.201401,134.999775 C365.921205,134.36867 353.747049,133.75613 345.678933,133.162156 C337.381373,132.55129 330.082987,131.713896 323.783775,130.649973 C316.348017,129.388298 311.20244,128.275438 308.347045,127.311394 C305.491649,126.34735 302.319617,124.652002 298.830947,122.22535 C286.973534,124.930969 277.953652,126.283779 271.7713,126.283779 C265.588948,126.283779 258.742838,124.930969 251.232968,122.22535 L253.889611,86.1852288 Z" id="路径-12" stroke="#000000" fill="#FFFFFF"></path>
                <path d="M183.537405,321.481168 L167.073082,328.230483 C166.065652,332.334032 165.611332,335.355084 165.710122,337.29364 C165.808913,339.232195 166.525072,341.349184 167.8586,343.644606 C170.851252,347.075535 174.356981,350.132638 178.375787,352.815916 C182.394593,355.499193 190.047396,358.970251 201.334195,363.22909 L211.938282,350.959344 L183.537405,321.481168 Z" id="路径-19" fill="#000000"></path>
                <path d="M145.326528,295.265718 C137.781699,300.029401 131.983739,303.555615 127.932648,305.844361 C123.881557,308.133107 117.872586,311.277457 109.905735,315.277411 L109.905735,344.381488 C123.017244,339.305328 132.611294,335.396621 138.687884,332.655366 C144.764474,329.914111 152.091609,326.189378 160.669289,321.481168 L145.326528,295.265718 Z" id="路径-20" stroke="#000000" fill="#FFFFFF"></path>
                <polygon id="路径-20" fill="#D9C6F4" points="128.272832 306.311062 109.905735 315.517742 111.08228 343.27229 138.844811 332.265823"></polygon>
                <polygon id="路径-25" stroke="#000000" fill="#FFFFFF" points="208.507423 345.89772 188.817585 377.437514 182.264692 390.341122 201.96144 407.633619 228.413676 368.401153"></polygon>
                <polygon id="路径-25" fill="#D9C6F4" points="196.52541 365.866182 187.941603 379.833253 182.264692 390.341122 203.581112 404.392427 217.855164 383.190702"></polygon>
                <path d="M117.43991,311.669505 C117.458914,311.839395 114.318313,312.326819 108.018108,313.13178 C104.481193,313.583682 97.7466007,315.022132 91.2093123,315.948539 C87.9932074,316.404298 82.9460942,316.981665 76.0679727,317.680641 C75.5185106,317.736468 75.1183501,318.22716 75.1741881,318.776621 C75.181297,318.846575 75.1957642,318.915584 75.2173496,318.982504 L94.5566764,378.938642 L94.5566764,378.938642 C95.8663799,381.894185 97.1446622,384.146097 98.3915233,385.694376 C99.6383845,387.242655 101.833382,389.303659 104.976516,391.877387 C108.531796,387.965458 111.102773,384.664261 112.689447,381.973797 C114.276121,379.283334 115.859609,375.53996 117.43991,370.743676 C118.190689,365.873658 118.648809,361.559038 118.814271,357.799816 C118.979733,354.040594 118.979733,347.94692 118.814271,339.518794 C117.235149,337.367119 116.247036,335.653537 115.849933,334.378045 C114.855055,331.182509 115.002789,327.323198 114.929927,325.846772 C114.848182,324.190334 115.29319,322.531249 116.264953,320.869518 C117.245184,319.193305 117.716194,317.267964 117.620483,315.328535 L117.43991,311.669505 L117.43991,311.669505 Z" id="路径-21" stroke="#000000" fill="#FFFFFF"></path>
                <path d="M157.368873,160.951619 L132.602509,193.848571 C131.552364,201.895381 131.552364,207.755378 132.602509,211.428561 C133.652655,215.101744 136.437281,219.840662 140.956389,225.645316 C145.101983,230.097014 148.542418,233.405733 151.277694,235.571475 C154.01297,237.737216 158.219211,240.194807 163.896417,242.944248 C160.192258,246.0425 155.635834,248.476101 150.227147,250.245052 C144.818459,252.014003 136.176218,253.897122 124.300422,255.894408 C129.867392,257.438617 133.697614,261.218954 135.791087,267.235421 C137.884561,273.251887 139.238592,283.923757 139.853181,299.251029 C142.561979,305.618544 144.878057,310.303431 146.801415,313.305688 C148.724773,316.307945 151.922162,320.229282 156.393582,325.069699 L199.675767,299.251029 L167.073082,328.230483 C171.15554,327.748845 174.291428,327.748845 176.480745,328.230483 C178.670062,328.712121 182.249638,330.419173 187.219473,333.351639 C190.33737,336.340104 193.133494,339.341267 195.607846,342.355129 C198.082198,345.368991 201.993308,350.572638 207.341177,357.96607 C210.422051,362.116525 213.18775,364.980072 215.638274,366.556712 C218.088798,368.133353 222.128064,370.027629 227.756073,372.239542 C237.621526,355.167755 244.306032,342.682177 247.809593,334.782809 C254.590261,319.494647 259.026425,303.520468 260.962303,294.70433 C264.398577,279.055267 262.793535,261.801907 256.147175,242.944248 C248.032542,227.11492 241.309715,215.081936 235.978695,206.845294 C230.647674,198.608652 222.222757,187.237763 210.703945,172.732625 L157.368873,160.951619 Z" id="路径-11" fill="#FF4D90"></path>
                <ellipse id="椭圆形" fill="#FF4D90" transform="translate(85.554189, 327.828442) rotate(-17.000000) translate(-85.554189, -327.828442) " cx="85.5541887" cy="327.828442" rx="4" ry="6.5"></ellipse>
                <path d="M88.7925322,317.24545 C90.5392573,318.510764 91.7263831,319.576606 92.3539095,320.442974 C92.981436,321.309343 93.5810063,322.71023 94.1526204,324.645636 L94.1526204,332.06967 C94.0016193,332.798842 93.7617902,333.356219 93.4331333,333.7418 C93.2656349,333.93831 93.0137576,334.162124 92.6775012,334.413242 C91.9191874,334.979547 91.4725763,335.870487 91.4725763,336.816923 L91.4725763,340.443417 C91.4725645,341.350243 91.7806954,342.230158 92.3464301,342.938874 C92.778523,343.480172 93.1407574,343.961043 93.4331333,344.381488 C93.7200393,344.794067 94.0727163,345.340265 94.4911644,346.020083 C95.0733095,346.965852 95.3815421,348.054632 95.3815421,349.165205 L95.3815421,366.954965 L95.3815421,366.954965 C96.6317195,372.384533 98.0177796,376.423571 99.5397226,379.072077 C101.061666,381.720583 103.783759,384.830611 107.706003,388.402161" id="路径-23" stroke="#000000"></path>
                <path d="M96.4374919,315.517742 C98.086885,318.359528 99.4055612,320.227542 100.393521,321.121785 C102.987114,323.469355 107.006634,324.742468 108.65189,326.475111 C111.237219,329.19776 112.466879,331.127997 112.340869,332.265823" id="路径-24" stroke="#000000"></path>
                <path d="M131.651967,148.625753 C127.776352,143.40917 125.317738,138.967973 124.276124,135.302162 C120.346028,121.470748 119.657707,106.764729 117.831589,101.673183 C115.279493,94.5574801 112.637542,89.9975319 109.905735,87.9933389 C120.917576,88.3820456 129.29247,88.0139089 135.030417,86.8889289 C140.768364,85.7639489 149.241717,82.8288239 160.450474,78.0835539 C170.23852,75.2926463 176.616878,78.595908 179.585548,87.9933389 C181.015666,92.5204268 185.390848,93.5036169 189.544264,93.991514 C194.012602,94.5164047 194.713441,94.502144 203.5,89.9572352 C206.115253,88.604477 208.27815,85.4010179 209.279315,83.7971748 C211.641798,80.0125301 213.721932,78.0835539 221.301628,78.0835539 C226.458747,78.0835539 236.521074,79.7302722 249.051219,76.8169785 C252.351385,76.0496807 257.470786,73.6369284 264.409422,69.5787214 C264.029452,69.2477785 264.029452,73.987263 264.409422,83.7971748 C264.638376,89.708232 268.664086,97.5809417 269.150427,106.695495 C269.364283,110.703386 268.518368,117.292104 266.612682,126.461647 C256.103388,125.676755 248.254059,124.932692 243.064698,124.229457 C237.875336,123.526222 230.62098,122.223512 221.301628,120.321329 L235.722854,181.244443 C231.577215,182.946293 220.836264,183.414343 203.5,182.648592 C190.82988,182.088947 174.195287,175.267956 152.432076,173.299841 C147.088781,172.81663 138.263169,173.848668 125.955238,176.395956 L139.953652,142.443775 L131.651967,148.625753 Z" id="路径-7" stroke="#000000" fill="#FFFFFF"></path>
                <path d="M198.365636,191.110602 C207.852577,197.271607 214.966711,202.409162 219.708037,206.523268 C224.449363,210.637373 229.80868,216.449692 235.785986,223.960225 C239.94564,231.17112 241.803492,237.580432 241.359541,243.18816 C240.91559,248.795888 237.942836,255.971971 232.44128,264.71641 C224.908123,273.962299 219.045132,280.668933 214.852307,284.836311 C210.659481,289.003689 204.244661,294.822244 195.607846,302.291976" id="路径-16" stroke="#FFFFFF"></path>
                <path d="M191.408589,227.954789 C183.945609,233.53265 178.800416,236.987019 175.97301,238.317896 C166.201036,242.917623 163.367409,243.18816 163.367409,243.18816" id="路径-17" stroke="#FFFFFF"></path>
                <path d="M188.817585,378.867559 C182.370297,385.492294 177.359183,390.316577 173.784244,393.340409 C170.209305,396.36424 164.937553,400.371387 157.968988,405.361847 L201.639082,449.212451 C204.746945,451.95298 207.374499,453.779837 209.521743,454.69302 C211.351483,455.471174 214.146281,456.144627 217.906138,456.71338 L217.906139,456.713372 C218.998279,456.878579 220.017561,456.127152 220.182769,455.035012 C220.186341,455.0114 220.189489,454.987726 220.192213,454.964001 C220.742288,450.172906 221.017325,446.562868 221.017325,444.133885 C221.017325,441.372076 220.661751,437.13247 219.950602,431.415068 C217.328447,424.430833 215.17694,419.328522 213.496083,416.108134 C211.815226,412.887746 209.096259,408.658622 205.339184,403.42076 L197.454652,395.726924 C194.85848,393.193543 192.87034,390.104626 191.639673,386.692356 L188.817585,378.867559 L188.817585,378.867559 Z" id="路径-26" stroke="#000000" fill="#FFFFFF"></path>
                <ellipse id="椭圆形" fill="#FF4D90" transform="translate(171.500000, 409.000000) rotate(46.000000) translate(-171.500000, -409.000000) " cx="171.5" cy="409" rx="7" ry="4"></ellipse>
                <path d="M167.061325,399.292782 C172.863321,400.057929 176.56387,401.34531 178.162971,403.154924 C179.762072,404.964538 180.649443,408.585548 180.825084,414.017954 L180.825084,414.017954 C182.4242,417.068093 183.839452,419.179727 185.07084,420.352855 C185.602958,420.859797 186.268593,421.402002 187.067745,421.97947 L187.067745,421.979469 C189.418072,423.677818 191.225752,426.021002 192.271986,428.72541 C193.774111,432.608247 195.830509,435.797266 198.44118,438.292467 C200.77959,440.527448 203.057597,444.136792 208.677591,447.659744 C210.563358,448.841857 214.320269,450.352835 219.948323,452.192678" id="路径-27" stroke="#000000"></path>
                <path d="M173.784244,393.340409 C176.92791,395.504147 179.157224,396.72845 180.472186,397.01332 C184.290309,397.840467 187.187088,396.268417 189.493156,397.01332 C192.99054,398.14304 195.334624,399.367344 196.52541,400.686231" id="路径-28" stroke="#000000"></path>
                <path d="M196.52541,414.083622 C200.146373,413.361512 203.084297,413.065932 205.339184,413.196881 C207.59407,413.327831 210.335684,414.046336 213.564024,415.352398" id="路径-30" stroke="#FF4D90" stroke-width="4" stroke-linecap="round"></path>
                <path d="M200.140679,421.045979 C203.563007,420.460577 206.351496,420.25916 208.506144,420.441728 C210.660792,420.624297 213.449281,421.4238 216.871609,422.840239" id="路径-31" stroke="#FF4D90" stroke-width="4" stroke-linecap="round"></path>
                <path d="M204.358901,428.188501 C208.25692,427.800847 211.194018,427.800847 213.170194,428.188501 C215.14637,428.576155 217.137909,429.299703 219.144811,430.359143" id="路径-32" stroke="#FF4D90" stroke-width="4" stroke-linecap="round"></path>
                <path d="M105.387503,345.107995 C108.949873,346.308909 111.620983,347.500005 113.400831,348.681281 C115.18068,349.862558 117.318327,351.617486 119.813773,353.946068" id="路径-22" stroke="#FF4D90" stroke-width="4" stroke-linecap="round"></path>
                <path d="M104.393573,352.823806 C107.67328,353.492891 110.325307,354.480369 112.349653,355.78624 C114.374,357.092111 116.570238,359.024283 118.938367,361.582754" id="路径-33" stroke="#FF4D90" stroke-width="4" stroke-linecap="round"></path>
                <path d="M105.387503,360.947073 C107.167202,361.207738 109.170157,362.096056 111.396368,363.612026 C113.62258,365.127996 115.416143,367.154732 116.777056,369.692236" id="路径-34" stroke="#FF4D90" stroke-width="4" stroke-linecap="round"></path>
                <path d="M207.72568,48.9450703 C208.20197,50.0808592 208.82868,50.8088269 209.605809,51.1289734 C210.382939,51.44912 211.53954,51.44912 213.075613,51.1289734" id="路径-36" stroke="#000000" stroke-width="2" stroke-linecap="round"></path>
                <polygon id="+" fill="#000000" fill-rule="nonzero" transform="translate(206.000000, 42.000000) rotate(-78.000000) translate(-206.000000, -42.000000) " points="207.011364 45 207.011364 42.72 209 42.72 209 41.28 207.011364 41.28 207.011364 39 205 39 205 41.28 203 41.28 203 42.72 205 42.72 205 45"></polygon>
                <polygon id="+备份" fill="#000000" fill-rule="nonzero" transform="translate(215.593030, 36.614882) rotate(-78.000000) translate(-215.593030, -36.614882) " points="216.435833 39.114882 216.435833 37.214882 218.09303 37.214882 218.09303 36.014882 216.435833 36.014882 216.435833 34.114882 214.759696 34.114882 214.759696 36.014882 213.09303 36.014882 213.09303 37.214882 214.759696 37.214882 214.759696 39.114882"></polygon>
                <path d="M211.886639,39.203114 L214.93356,42.143202 C215.30671,42.5032685 215.342722,43.0888329 215.016506,43.4919109 L213.739834,45.0693876 L213.739834,45.0693876" id="路径-37" stroke="#000000" stroke-linecap="round"></path>
                <polyline id="路径-38" stroke="#000000" stroke-width="2" stroke-linecap="round" points="175.889447 46.1406319 180.397319 46.1406319 185.279458 49.6377999"></polyline>
                <path d="M206,69.5625211 C203.324104,68.531056 201.478757,67.6548295 200.463959,66.9338418 C199.449161,66.212854 198.495441,65.1004163 197.6028,63.5965287 C197.433418,62.9295213 197.361556,62.4289605 197.387215,62.0948465 C197.406414,61.8448501 197.495868,61.484149 197.655579,61.0127431 L197.655565,61.0127386 C197.765155,60.6892701 198.032247,60.4440984 198.363895,60.3625412 C198.755037,60.2663535 199.062344,60.2068125 199.285816,60.183918 C199.600889,60.1516393 200.145293,60.1516393 200.919031,60.183918 C202.043703,60.5484446 202.904026,60.9456539 203.5,61.3755459 C204.095974,61.805438 204.929308,62.5457656 206,63.5965287 L206,69.5625211 Z" id="路径-39" fill="#000000"></path>
                <line x1="123.881726" y1="308.406676" x2="134.082356" y2="334.094161" id="路径-40" stroke="#FFFFFF" stroke-width="2"></line>
                <line x1="193.629981" y1="370.496137" x2="215.516883" y2="387.200258" id="路径-41" stroke="#FFFFFF" stroke-width="2"></line>
                <path d="M139,143.500513 C144.251571,138.415976 148.66495,134.120481 152.240138,130.614027 C155.815325,127.107573 159.585653,123.376693 163.551122,119.421388" id="路径-42" stroke="#000000" stroke-linecap="round"></path>
            </g>
        </g>
    </g>
</svg>